<svg xmlns="http://www.w3.org/2000/svg" viewBox="0 0 64 64" role="img" aria-label="Lucky Jet">
  <defs>
    <linearGradient id="g" x1="0" y1="0" x2="1" y2="1">
      <stop offset="0" stop-color="#7c3aed"/>
      <stop offset="0.55" stop-color="#ff2bd6"/>
      <stop offset="1" stop-color="#22d3ee"/>
    </linearGradient>
    <filter id="glow" x="-50%" y="-50%" width="200%" height="200%">
      <feGaussianBlur stdDeviation="2.2" result="b"/>
      <feMerge>
        <feMergeNode in="b"/>
        <feMergeNode in="SourceGraphic"/>
      </feMerge>
    </filter>
  </defs>
  <rect width="64" height="64" rx="16" fill="#0b0720"/>
  <path filter="url(#glow)" d="M35 10c10 7 16 19 16 28 0 15-7 20-19 26-12-6-19-11-19-26 0-9 6-21 16-28 2-2 4-2 6 0Z" fill="url(#g)"/>
  <circle cx="32" cy="34" r="5" fill="#0b0720" opacity=".65"/>
  <circle cx="32" cy="34" r="3.5" fill="#22d3ee" opacity=".8"/>
  <path filter="url(#glow)" d="M32 56c4-2 7-4 10-7-2 7-6 12-10 15-4-3-8-8-10-15 3 3 6 5 10 7Z" fill="#ff2bd6" opacity=".9"/>
</svg>
